<svg xmlns="http://www.w3.org/2000/svg" width="520" height="900" viewBox="0 0 520 900">
  <rect width="520" height="900" rx="28" fill="#000" fill-opacity="0.25" stroke="#fff" stroke-opacity="0.14"/>
  <g stroke="#fff" stroke-opacity="0.12" fill="none">
    <rect x="44" y="70" width="432" height="120" rx="16"/>
    <rect x="44" y="230" width="432" height="120" rx="16"/>
    <rect x="44" y="390" width="432" height="120" rx="16"/>
    <rect x="44" y="550" width="432" height="120" rx="16"/>
    <rect x="44" y="710" width="432" height="120" rx="16"/>
  </g>
  <g fill="#fff" fill-opacity="0.10">
    <rect x="70" y="92" width="54" height="84" rx="10"/>
    <rect x="136" y="102" width="34" height="74" rx="8"/>
    <rect x="180" y="98" width="44" height="78" rx="9"/>
    <rect x="70" y="252" width="40" height="84" rx="9"/>
    <rect x="118" y="252" width="62" height="84" rx="10"/>
    <rect x="190" y="262" width="34" height="74" rx="8"/>
    <rect x="70" y="412" width="62" height="84" rx="10"/>
    <rect x="140" y="422" width="44" height="74" rx="9"/>
    <rect x="190" y="412" width="34" height="84" rx="8"/>
  </g>
  <text x="260" y="870" text-anchor="middle" font-family="Arial" font-size="18" fill="#fff" fill-opacity="0.55">ARCHIVE SHELF</text>
</svg>